# xmcd
#
# Track frame offsets:
#	150
#	39390
#	150199
#	169735
#	261963
#
# Disc length: 4281 seconds
#
# Revision: 1
# Processed by: cddbd v1.5.2PL0 Copyright (c) Steve Scherf et al.
# Submitted via: audiograbber 1.83.01
#
DISCID=3110b705
DTITLE=Grateful Dead - 73-08-01A Roosevelt Stadium, Jersey City NJ
DYEAR=1900
DGENRE=
TTITLE0=Row Jimmy
TTITLE1=Dark Star
TTITLE2=El Paso
TTITLE3=Eyes Of The World
TTITLE4=Morning Dew
EXTD=
EXTT0=
EXTT1=
EXTT2=
EXTT3=
EXTT4=
PLAYORDER=
